<svg width="67" height="59" viewBox="0 0 67 59" fill="none" xmlns="http://www.w3.org/2000/svg">
<path d="M45.8333 4.16675V16.6667H62.5V8.33342C62.5 6.11987 60.5469 4.16675 58.3333 4.16675H45.8333ZM41.6667 4.16675H25V16.6667H41.6667V4.16675ZM20.8333 4.16675H8.33334C5.98959 4.16675 4.16668 6.11987 4.16668 8.33342V16.6667H20.8333V4.16675ZM4.16668 20.8334V37.5001H20.8333V20.8334H4.16668ZM4.16668 41.6667V50.0001C4.16668 52.3438 5.98959 54.1667 8.33334 54.1667H20.8333V41.6667H4.16668ZM25 54.1667H41.6667V41.6667H25V54.1667ZM45.8333 54.1667H58.3333C60.5469 54.1667 62.5 52.3438 62.5 50.0001V41.6667H45.8333V54.1667ZM62.5 37.5001V20.8334H45.8333V37.5001H62.5ZM1.14441e-05 8.33342C1.14441e-05 3.77612 3.64584 8.34465e-05 8.33334 8.34465e-05H58.3333C62.8906 8.34465e-05 66.6667 3.77612 66.6667 8.33342V50.0001C66.6667 54.6876 62.8906 58.3334 58.3333 58.3334H8.33334C3.64584 58.3334 1.14441e-05 54.6876 1.14441e-05 50.0001V8.33342ZM25 37.5001H41.6667V20.8334H25V37.5001Z" fill="url(#paint0_linear_987_147)"/>
<defs>
<linearGradient id="paint0_linear_987_147" x1="-27.86" y1="-4.33325" x2="107.188" y2="56.4043" gradientUnits="userSpaceOnUse">
<stop offset="0.168269" stop-color="#00B2C2"/>
<stop offset="0.617696" stop-color="#093493"/>
<stop offset="1" stop-color="#321F96"/>
</linearGradient>
</defs>
</svg>
