<svg width="75" height="59" viewBox="0 0 75 59" fill="none" xmlns="http://www.w3.org/2000/svg">
<path d="M17.7083 4.16675H7.29167C5.46875 4.16675 4.16667 5.59904 4.16667 7.29175V17.7084C4.16667 19.5313 5.46875 20.8334 7.29167 20.8334H17.7083C19.401 20.8334 20.8333 19.5313 20.8333 17.7084V14.5834V10.4167V7.29175C20.8333 5.59904 19.401 4.16675 17.7083 4.16675ZM25 17.7084C25 19.1407 24.6094 20.4428 23.8281 21.6147L33.3333 34.1147C34.2448 33.5938 35.2865 33.3334 36.4583 33.3334H46.875C50.7812 33.3334 54.1667 36.7188 54.1667 40.6251V51.0417C54.1667 55.0782 50.7812 58.3334 46.875 58.3334H36.4583C32.4219 58.3334 29.1667 55.0782 29.1667 51.0417V40.6251C29.1667 39.323 29.5573 38.0209 30.2083 36.849L20.8333 24.349C19.7917 24.8699 18.75 25.0001 17.7083 25.0001H7.29167C3.25521 25.0001 0 21.7449 0 17.7084V7.29175C0 3.3855 3.25521 8.34465e-05 7.29167 8.34465e-05H17.7083C21.6146 8.34465e-05 25 3.3855 25 7.29175V10.4167H50V7.29175C50 3.3855 53.2552 8.34465e-05 57.2917 8.34465e-05H67.7083C71.6146 8.34465e-05 75 3.3855 75 7.29175V17.7084C75 21.7449 71.6146 25.0001 67.7083 25.0001H57.2917C53.2552 25.0001 50 21.7449 50 17.7084V14.5834H25V17.7084ZM54.1667 17.7084C54.1667 19.5313 55.4687 20.8334 57.2917 20.8334H67.7083C69.401 20.8334 70.8333 19.5313 70.8333 17.7084V7.29175C70.8333 5.59904 69.401 4.16675 67.7083 4.16675H57.2917C55.4687 4.16675 54.1667 5.59904 54.1667 7.29175V10.4167V14.5834V17.7084ZM46.875 37.5001H36.4583C34.6354 37.5001 33.3333 38.9324 33.3333 40.6251V51.0417C33.3333 52.8647 34.6354 54.1667 36.4583 54.1667H46.875C48.5677 54.1667 50 52.8647 50 51.0417V40.6251C50 38.9324 48.5677 37.5001 46.875 37.5001Z" fill="url(#paint0_linear_987_213)"/>
<defs>
<linearGradient id="paint0_linear_987_213" x1="-31" y1="-4.33325" x2="114" y2="68.6668" gradientUnits="userSpaceOnUse">
<stop offset="0.168269" stop-color="#00B2C2"/>
<stop offset="0.617696" stop-color="#093493"/>
<stop offset="1" stop-color="#321F96"/>
</linearGradient>
</defs>
</svg>
