<svg width="67" height="67" viewBox="0 0 67 67" fill="none" xmlns="http://www.w3.org/2000/svg">
<path d="M30.4687 0.650962C31.3802 0.260338 32.2917 -7.9155e-05 33.3333 -7.9155e-05C34.2448 -7.9155e-05 35.2865 0.260338 36.0677 0.650962L64.4531 13.4114C65.7552 13.9322 66.6667 15.2343 66.6667 16.7968C66.6667 18.2291 65.7552 19.5312 64.4531 20.052L36.0677 32.8124C35.1562 33.203 34.2448 33.3333 33.3333 33.3333C32.2917 33.3333 31.3802 33.203 30.4687 32.8124L2.08333 20.052C0.781245 19.5312 -5.24521e-06 18.2291 -5.24521e-06 16.6666C-5.24521e-06 15.2343 0.781245 13.9322 2.08333 13.4114L30.4687 0.650962ZM33.3333 4.16659C32.9427 4.16659 32.5521 4.2968 32.1615 4.427L4.8177 16.6666L32.1615 29.0364C32.5521 29.1666 32.9427 29.1666 33.3333 29.1666C33.724 29.1666 34.1146 29.1666 34.375 29.0364L61.7187 16.6666L34.375 4.427C34.1146 4.2968 33.724 4.16659 33.3333 4.16659ZM2.08333 46.7447L8.07291 44.0103L13.151 46.2239L4.8177 49.9999L32.1615 62.3697C32.5521 62.4999 32.9427 62.4999 33.3333 62.4999C33.724 62.4999 34.1146 62.4999 34.375 62.3697L61.7187 49.9999L53.3854 46.3541L58.4635 44.0103L64.4531 46.7447C65.7552 47.2655 66.6667 48.5676 66.6667 50.1301C66.6667 51.5624 65.7552 52.8645 64.4531 53.3853L36.0677 66.1458C35.1562 66.5364 34.2448 66.6666 33.3333 66.6666C32.2917 66.6666 31.3802 66.5364 30.4687 66.1458L2.08333 53.3853C0.781245 52.8645 -5.24521e-06 51.5624 -5.24521e-06 49.9999C-5.24521e-06 48.5676 0.781245 47.2655 2.08333 46.7447ZM8.07291 27.3437L13.151 29.5572L4.8177 33.3333L32.1615 45.703C32.5521 45.8333 32.9427 45.8333 33.3333 45.8333C33.724 45.8333 34.1146 45.8333 34.375 45.703L61.7187 33.3333L53.3854 29.6874L58.4635 27.3437L64.4531 30.078C65.7552 30.5989 66.6667 31.901 66.6667 33.4635C66.6667 34.8958 65.7552 36.1978 64.4531 36.7187L36.0677 49.4791C35.1562 49.8697 34.2448 49.9999 33.3333 49.9999C32.2917 49.9999 31.3802 49.8697 30.4687 49.4791L2.08333 36.7187C0.781245 36.1978 -5.24521e-06 34.8958 -5.24521e-06 33.3333C-5.24521e-06 31.901 0.781245 30.5989 2.08333 30.078L8.07291 27.3437Z" fill="url(#paint0_linear_987_210)"/>
<defs>
<linearGradient id="paint0_linear_987_210" x1="-35.1667" y1="-0.166747" x2="109.833" y2="72.8333" gradientUnits="userSpaceOnUse">
<stop offset="0.168269" stop-color="#00B2C2"/>
<stop offset="0.617696" stop-color="#093493"/>
<stop offset="1" stop-color="#321F96"/>
</linearGradient>
</defs>
</svg>
