<svg width="67" height="67" viewBox="0 0 67 67" fill="none" xmlns="http://www.w3.org/2000/svg">
<path d="M25 4.16659C21.7448 4.16659 19.0104 6.77075 18.75 9.89575C18.6198 10.677 17.9687 11.4583 17.1875 11.7187C14.4531 12.3697 12.3698 14.8437 12.3698 17.7083C12.3698 18.0989 12.5 18.4895 12.5 18.8801C12.7604 19.9218 12.2396 20.9635 11.1979 21.2239C8.85415 22.1353 7.16144 24.4791 7.16144 27.0833C7.16144 27.8645 7.29165 28.5155 7.55206 29.0364C7.81248 29.8176 7.55206 30.7291 6.90102 31.2499C5.20831 32.8124 4.16665 35.026 4.16665 37.4999C4.16665 40.4947 5.72915 43.0989 8.0729 44.6614C8.85415 45.1822 9.24477 46.2239 8.85415 47.2655C8.46352 48.0468 8.33331 49.0885 8.33331 49.9999C8.33331 54.0364 11.5885 57.2916 15.625 57.2916C16.0156 57.2916 16.4062 57.2916 16.7969 57.2916C17.8385 57.0312 18.75 57.6822 19.1406 58.5937C20.0521 60.9374 22.2656 62.4999 25 62.4999C28.3854 62.4999 31.25 59.7655 31.25 56.2499V39.5833H25C23.9583 39.5833 23.1771 40.2343 22.9166 41.1458C24.7396 41.927 26.0416 43.7499 26.0416 45.8333C26.0416 48.828 23.6979 51.0416 20.8333 51.0416C17.8385 51.0416 15.625 48.828 15.625 45.8333C15.625 43.7499 16.9271 41.927 18.75 41.1458C19.0104 37.8905 21.7448 35.4166 25 35.4166H31.25V20.8333H27.6041C26.8229 22.7864 25 23.9583 22.9166 23.9583C19.9219 23.9583 17.7083 21.7447 17.7083 18.7499C17.7083 15.8853 19.9219 13.5416 22.9166 13.5416C25 13.5416 26.8229 14.8437 27.6041 16.6666H31.25V10.4166C31.25 7.03117 28.3854 4.16659 25 4.16659ZM35.4166 20.8333V45.8333H43.0989C43.8802 44.0103 45.7031 42.7083 47.9166 42.7083C50.7812 42.7083 53.125 45.052 53.125 47.9166C53.125 50.7812 50.7812 53.1249 47.9166 53.1249C45.7031 53.1249 43.8802 51.8228 43.0989 49.9999H35.4166V56.2499C35.4166 59.7655 38.151 62.4999 41.6666 62.4999C44.2708 62.4999 46.4844 60.9374 47.3958 58.5937C47.7864 57.552 48.6979 57.0312 49.7396 57.2916C50.1302 57.2916 50.5208 57.2916 50.9114 57.2916C54.9479 57.2916 58.2031 54.0364 58.2031 49.9999C58.2031 49.0885 58.0729 48.0468 57.6823 47.2655C57.2916 46.2239 57.6823 45.1822 58.4635 44.6614C60.9375 43.0989 62.5 40.4947 62.5 37.4999C62.5 35.026 61.3281 32.8124 59.6354 31.2499C58.9844 30.7291 58.7239 29.9478 58.9844 29.0364C59.2448 28.5155 59.375 27.8645 59.375 27.0833C59.375 24.4791 57.6823 22.1353 55.3385 21.3541C54.2969 20.9635 53.776 19.9218 54.0364 19.0103C54.0364 18.6197 54.1666 18.2291 54.1666 17.7083C54.1666 14.8437 52.0833 12.3697 49.3489 11.7187C48.5677 11.4583 47.9166 10.8072 47.7864 9.89575C47.526 6.77075 44.9219 4.16659 41.6666 4.16659C38.151 4.16659 35.4166 7.03117 35.4166 10.4166V16.6666H41.6666C45.0521 16.6666 47.9166 19.5312 47.9166 22.9166V24.4791C49.7396 25.2603 51.0416 27.0833 51.0416 29.1666C51.0416 32.1614 48.6979 34.3749 45.8333 34.3749C42.8385 34.3749 40.625 32.1614 40.625 29.1666C40.625 27.0833 41.7969 25.2603 43.75 24.4791V22.9166C43.75 21.8749 42.7083 20.8333 41.6666 20.8333H35.4166ZM25 66.6666C21.0937 66.6666 17.7083 64.5833 15.8854 61.4583C15.7552 61.4583 15.625 61.4583 15.625 61.4583C9.24477 61.4583 4.16665 56.3801 4.16665 49.9999C4.16665 49.0885 4.29686 48.0468 4.42706 47.1353C1.69269 44.9218 -1.90735e-05 41.4062 -1.90735e-05 37.4999C-1.90735e-05 34.2447 1.17186 31.2499 3.25519 29.0364C3.12498 28.5155 3.12498 27.8645 3.12498 27.0833C3.12498 23.3072 5.20831 19.9218 8.33331 18.0989C8.33331 17.9687 8.33331 17.8385 8.33331 17.7083C8.33331 13.4114 10.9375 9.63534 14.8437 8.07284C15.8854 3.51555 20.0521 -7.9155e-05 25 -7.9155e-05C28.3854 -7.9155e-05 31.3802 1.69263 33.3333 4.16659C35.1562 1.69263 38.151 -7.9155e-05 41.6666 -7.9155e-05C46.4844 -7.9155e-05 50.651 3.51555 51.6927 8.07284C55.5989 9.63534 58.3333 13.4114 58.3333 17.7083C58.3333 17.8385 58.3333 17.9687 58.3333 18.0989C61.3281 19.9218 63.5416 23.3072 63.5416 27.0833C63.5416 27.8645 63.4114 28.5155 63.2812 29.0364C65.3646 31.2499 66.6666 34.2447 66.6666 37.4999C66.6666 41.4062 64.8437 44.9218 62.1094 47.1353C62.3698 48.0468 62.5 49.0885 62.5 49.9999C62.5 56.3801 57.2916 61.4583 51.0416 61.4583C50.9114 61.4583 50.7812 61.4583 50.651 61.4583C48.8281 64.5833 45.4427 66.6666 41.6666 66.6666C38.151 66.6666 35.1562 65.1041 33.3333 62.4999C31.3802 65.1041 28.3854 66.6666 25 66.6666ZM22.9166 16.6666C21.7448 16.6666 20.8333 17.7083 20.8333 18.7499C20.8333 19.9218 21.7448 20.8333 22.9166 20.8333C23.9583 20.8333 25 19.9218 25 18.7499C25 17.7083 23.9583 16.6666 22.9166 16.6666ZM20.8333 43.7499C19.6614 43.7499 18.75 44.7916 18.75 45.8333C18.75 47.0051 19.6614 47.9166 20.8333 47.9166C21.875 47.9166 22.9166 47.0051 22.9166 45.8333C22.9166 44.7916 21.875 43.7499 20.8333 43.7499ZM43.75 29.1666C43.75 30.3385 44.6614 31.2499 45.8333 31.2499C46.875 31.2499 47.9166 30.3385 47.9166 29.1666C47.9166 28.1249 46.875 27.0833 45.8333 27.0833C44.6614 27.0833 43.75 28.1249 43.75 29.1666ZM47.9166 45.8333C46.7448 45.8333 45.8333 46.8749 45.8333 47.9166C45.8333 49.0885 46.7448 49.9999 47.9166 49.9999C48.9583 49.9999 50 49.0885 50 47.9166C50 46.8749 48.9583 45.8333 47.9166 45.8333Z" fill="url(#paint0_linear_987_113)"/>
<defs>
<linearGradient id="paint0_linear_987_113" x1="-27.86" y1="-0.166747" x2="107.188" y2="60.5708" gradientUnits="userSpaceOnUse">
<stop offset="0.168269" stop-color="#00B2C2"/>
<stop offset="0.617696" stop-color="#093493"/>
<stop offset="1" stop-color="#321F96"/>
</linearGradient>
</defs>
</svg>
